<svg width="98" height="18" viewBox="0 0 98 18" fill="none" xmlns="http://www.w3.org/2000/svg">
<path d="M0.517045 18V0.545454H4.20739V7.74716H11.6989V0.545454H15.3807V18H11.6989V10.7898H4.20739V18H0.517045ZM21.0718 18H17.1173L23.1428 0.545454H27.8985L33.9156 18H29.961L25.5889 4.53409H25.4525L21.0718 18ZM20.8247 11.1392H30.1656V14.0199H20.8247V11.1392ZM35.6564 18V0.545454H39.3468V14.9574H46.8297V18H35.6564ZM48.9136 18V0.545454H52.6039V14.9574H60.0869V18H48.9136ZM65.8611 0.545454V18H62.1708V0.545454H65.8611ZM68.5374 18V0.545454H80.0942V3.58807H72.2277V7.74716H79.3271V10.7898H72.2277V18H68.5374ZM81.1937 0.545454H85.3272L89.3073 8.0625H89.4778L93.4579 0.545454H97.5914L91.2249 11.8295V18H87.5602V11.8295L81.1937 0.545454Z" fill="#7A5AF8"/>
</svg>
