<svg width="24" height="24" viewBox="0 0 24 24" fill="none" xmlns="http://www.w3.org/2000/svg">
<path d="M12 21L20.3775 12.5025C21.2567 11.6233 21.7506 10.4309 21.7506 9.1875C21.7506 7.94413 21.2567 6.75169 20.3775 5.8725C19.4983 4.99331 18.3059 4.49938 17.0625 4.49938C15.8191 4.49938 14.6267 4.99331 13.7475 5.8725L12 7.5L10.2525 5.8725C9.37332 4.99331 8.18087 4.49938 6.93751 4.49938C5.69414 4.49938 4.5017 4.99331 3.62251 5.8725C2.74331 6.75169 2.24939 7.94413 2.24939 9.1875C2.24939 10.4309 2.74331 11.6233 3.62251 12.5025L12 21Z" stroke="#343330" stroke-width="1.5" stroke-linecap="round" stroke-linejoin="round"/>
</svg>
